<svg xmlns="http://www.w3.org/2000/svg" height="960" width="960" viewBox="0 0 33 33" class="tr-ee-HcUTkf-qrcode-black" xmlns:xlink="http://www.w3.org/1999/xlink"><path fill="transparent" d="M0,0 h33v33H0z" shape-rendering="crispEdges"/><path fill="#000000" d="M0 0h7v1H0zM8 0h1v1H8zM10 0h1v1H10zM12 0h2v1H12zM16 0h1v1H16zM20 0h1v1H20zM23 0h2v1H23zM26,0 h7v1H26zM0 1h1v1H0zM6 1h1v1H6zM8 1h2v1H8zM12 1h1v1H12zM14 1h6v1H14zM22 1h1v1H22zM24 1h1v1H24zM26 1h1v1H26zM32,1 h1v1H32zM0 2h1v1H0zM2 2h3v1H2zM6 2h1v1H6zM8 2h1v1H8zM11 2h2v1H11zM14 2h2v1H14zM17 2h1v1H17zM20 2h5v1H20zM26 2h1v1H26zM28 2h3v1H28zM32,2 h1v1H32zM0 3h1v1H0zM2 3h3v1H2zM6 3h1v1H6zM10 3h1v1H10zM13 3h1v1H13zM15 3h4v1H15zM21 3h3v1H21zM26 3h1v1H26zM28 3h3v1H28zM32,3 h1v1H32zM0 4h1v1H0zM2 4h3v1H2zM6 4h1v1H6zM10 4h2v1H10zM14 4h2v1H14zM17 4h1v1H17zM19 4h1v1H19zM24 4h1v1H24zM26 4h1v1H26zM28 4h3v1H28zM32,4 h1v1H32zM0 5h1v1H0zM6 5h1v1H6zM8 5h1v1H8zM10 5h1v1H10zM14 5h1v1H14zM16 5h1v1H16zM19 5h1v1H19zM21 5h1v1H21zM26 5h1v1H26zM32,5 h1v1H32zM0 6h7v1H0zM8 6h1v1H8zM10 6h1v1H10zM12 6h1v1H12zM14 6h1v1H14zM16 6h1v1H16zM18 6h1v1H18zM20 6h1v1H20zM22 6h1v1H22zM24 6h1v1H24zM26,6 h7v1H26zM8 7h1v1H8zM10 7h1v1H10zM13 7h1v1H13zM15 7h1v1H15zM19 7h4v1H19zM24 7h1v1H24zM2 8h3v1H2zM6 8h1v1H6zM8 8h2v1H8zM11 8h1v1H11zM13 8h1v1H13zM19 8h1v1H19zM21 8h2v1H21zM25 8h3v1H25zM30,8 h3v1H30zM2 9h4v1H2zM11 9h4v1H11zM16 9h2v1H16zM19 9h1v1H19zM22 9h5v1H22zM29,9 h4v1H29zM0 10h2v1H0zM3 10h6v1H3zM11 10h1v1H11zM13 10h3v1H13zM17 10h3v1H17zM22 10h1v1H22zM25 10h1v1H25zM27 10h1v1H27zM29 10h3v1H29zM1 11h1v1H1zM3 11h1v1H3zM5 11h1v1H5zM7 11h1v1H7zM25 11h1v1H25zM29 11h2v1H29zM4 12h1v1H4zM6 12h2v1H6zM22 12h4v1H22zM27 12h1v1H27zM29 12h1v1H29zM31 12h1v1H31zM0 13h1v1H0zM3 13h1v1H3zM7 13h4v1H7zM23 13h1v1H23zM26 13h1v1H26zM28 13h2v1H28zM32,13 h1v1H32zM0 14h4v1H0zM5 14h2v1H5zM9 14h1v1H9zM22 14h1v1H22zM27 14h2v1H27zM31 14h1v1H31zM0 15h1v1H0zM8 15h3v1H8zM22 15h2v1H22zM28 15h2v1H28zM32,15 h1v1H32zM1 16h1v1H1zM3 16h1v1H3zM6 16h1v1H6zM8 16h2v1H8zM23 16h1v1H23zM25 16h1v1H25zM28 16h1v1H28zM30 16h1v1H30zM32,16 h1v1H32zM1 17h1v1H1zM3 17h3v1H3zM7 17h1v1H7zM9 17h2v1H9zM23 17h2v1H23zM26 17h2v1H26zM3 18h1v1H3zM6 18h2v1H6zM9 18h1v1H9zM22 18h1v1H22zM30 18h1v1H30zM0 19h1v1H0zM3 19h2v1H3zM9 19h1v1H9zM22 19h4v1H22zM27 19h1v1H27zM29 19h3v1H29zM0 20h1v1H0zM2 20h5v1H2zM9 20h1v1H9zM22 20h1v1H22zM24 20h1v1H24zM27 20h3v1H27zM32,20 h1v1H32zM0 21h1v1H0zM2 21h1v1H2zM5 21h1v1H5zM8 21h2v1H8zM25 21h1v1H25zM30 21h1v1H30zM32,21 h1v1H32zM0 22h1v1H0zM2 22h1v1H2zM4 22h1v1H4zM6 22h1v1H6zM9 22h1v1H9zM11 22h1v1H11zM15 22h1v1H15zM18 22h2v1H18zM21 22h1v1H21zM23 22h2v1H23zM27 22h2v1H27zM31 22h1v1H31zM0 23h1v1H0zM2 23h3v1H2zM8 23h1v1H8zM12 23h6v1H12zM19 23h1v1H19zM21 23h1v1H21zM23 23h1v1H23zM28 23h1v1H28zM30 23h1v1H30zM32,23 h1v1H32zM0 24h1v1H0zM2 24h1v1H2zM4 24h5v1H4zM10 24h3v1H10zM14 24h2v1H14zM20 24h9v1H20zM32,24 h1v1H32zM8 25h1v1H8zM10 25h3v1H10zM14 25h4v1H14zM21 25h1v1H21zM24 25h1v1H24zM28 25h1v1H28zM31,25 h2v1H31zM0 26h7v1H0zM10 26h1v1H10zM17 26h1v1H17zM19 26h1v1H19zM21 26h1v1H21zM24 26h1v1H24zM26 26h1v1H26zM28 26h4v1H28zM0 27h1v1H0zM6 27h1v1H6zM9 27h2v1H9zM15 27h2v1H15zM19 27h1v1H19zM21 27h4v1H21zM28,27 h5v1H28zM0 28h1v1H0zM2 28h3v1H2zM6 28h1v1H6zM8 28h2v1H8zM11 28h2v1H11zM16 28h4v1H16zM21 28h1v1H21zM24 28h5v1H24zM31,28 h2v1H31zM0 29h1v1H0zM2 29h3v1H2zM6 29h1v1H6zM8 29h2v1H8zM12 29h1v1H12zM17 29h1v1H17zM20 29h1v1H20zM22 29h2v1H22zM25 29h1v1H25zM28 29h1v1H28zM30 29h2v1H30zM0 30h1v1H0zM2 30h3v1H2zM6 30h1v1H6zM8 30h1v1H8zM12 30h1v1H12zM16 30h1v1H16zM18 30h1v1H18zM20 30h1v1H20zM22 30h2v1H22zM25 30h2v1H25zM29 30h2v1H29zM0 31h1v1H0zM6 31h1v1H6zM9 31h2v1H9zM13 31h2v1H13zM17 31h1v1H17zM19 31h1v1H19zM25 31h1v1H25zM27 31h1v1H27zM30 31h1v1H30zM0 32h7v1H0zM9 32h5v1H9zM15 32h1v1H15zM21 32h2v1H21zM24 32h2v1H24zM29 32h3v1H29z" shape-rendering="crispEdges"/><image xlink:href="data:image/svg+xml,%3Csvg xmlns='http://www.w3.org/2000/svg' width='2000' height='2000' viewBox='0 0 2000 2000' fill='none'%3E%3Cpath d='M1113.74 600.049L1372.44 335.418L1523.55 488.182L1251.55 745.595H1633.55V958.503H1249.14L1522.34 1223.13L1371.23 1372.29L1000.11 1000.6L628.994 1372.29L479.097 1223.13L752.297 958.503H367.882V745.595H749.88L477.888 488.182L627.785 335.418L886.48 600.049V223.551H1111.33V600.049H1113.74ZM888.898 1264.03H1113.74V1769.24H888.898V1264.03Z' fill='%23000000'/%3E%3C/svg%3E" height="9.625" width="9.625" x="11.6875" y="11.6875" preserveAspectRatio="none"/></svg>